<svg width="476" height="108" viewBox="0 0 476 108" fill="none" xmlns="http://www.w3.org/2000/svg">
<g clip-path="url(#clip0_2246_17)">
<path d="M152.52 61.98C157.78 61.98 162.12 63.18 165.42 65.53L171.19 57.46C166.17 53.88 159.89 52.06 152.52 52.06C134.93 52.06 123.11 63.15 123.11 79.66C123.11 96.17 134.93 107.26 152.52 107.26C159.89 107.26 166.17 105.44 171.19 101.86L165.42 93.79C162.12 96.15 157.78 97.34 152.52 97.34C142.28 97.34 135.52 92.67 133.6 84.62H164.21V74.7H133.6C135.51 66.66 142.27 61.99 152.52 61.99V61.98Z" fill="white"/>
<path d="M456.86 61.98C462.12 61.98 466.46 63.18 469.76 65.53L475.53 57.46C470.51 53.88 464.23 52.06 456.86 52.06C439.27 52.06 427.45 63.15 427.45 79.66C427.45 96.17 439.27 107.26 456.86 107.26C464.23 107.26 470.51 105.44 475.53 101.86L469.76 93.79C466.46 96.15 462.12 97.34 456.86 97.34C446.62 97.34 439.86 92.67 437.94 84.62H468.55V74.7H437.94C439.85 66.66 446.61 61.99 456.86 61.99V61.98Z" fill="white"/>
<path d="M290.35 61.98C295.61 61.98 299.95 63.18 303.25 65.53L309.02 57.46C304 53.88 297.72 52.06 290.35 52.06C272.76 52.06 260.94 63.15 260.94 79.66C260.94 96.17 272.76 107.26 290.35 107.26C297.72 107.26 304 105.44 309.02 101.86L303.25 93.79C299.95 96.15 295.61 97.34 290.35 97.34C280.11 97.34 273.35 92.67 271.43 84.62H302.04V74.7H271.43C273.34 66.66 280.1 61.99 290.35 61.99V61.98Z" fill="white"/>
<path d="M93.53 62C104.57 62.63 108.53 69.16 108.69 69.44L113.01 66.99L117.36 64.61C117.1 64.14 110.84 53.04 94.09 52.09C85.04 51.58 77.17 54.14 72.46 59.12C69.45 62.29 68.04 66.21 68.48 70.15C69.68 80.94 81.67 82.8 91.31 84.29L93.87 84.69C103.94 86.28 107.12 87.25 107.42 90.24C107.52 91.22 107.16 92.13 106.34 93.04C103.9 95.73 98.45 97.34 91.77 97.34C78.86 97.34 75.48 90.96 75.4 90.79L66.32 94.8C66.54 95.31 72.05 107.26 91.77 107.26C101.49 107.26 109.28 104.58 113.69 99.7C116.38 96.73 117.66 93.02 117.29 89.26C116.19 78.17 105.63 76.5 95.41 74.89L92.83 74.48C86.21 73.45 78.7 72.29 78.34 69.05C78.2 67.79 78.98 66.66 79.66 65.95C81.72 63.78 86.45 61.6 93.53 62Z" fill="white"/>
<path d="M398.05 61.99C409.09 62.62 413.05 69.15 413.21 69.43L417.53 66.98L421.88 64.6C421.62 64.13 415.36 53.03 398.61 52.08C389.56 51.57 381.7 54.13 376.98 59.11C373.97 62.28 372.56 66.2 373 70.13C374.2 80.92 386.19 82.78 395.83 84.27L398.39 84.67C408.46 86.26 411.64 87.23 411.94 90.22C412.04 91.19 411.68 92.11 410.86 93.02C408.42 95.71 402.97 97.32 396.29 97.32C383.38 97.32 380 90.94 379.92 90.77L370.84 94.78C371.06 95.29 376.57 107.24 396.29 107.24C406.01 107.24 413.8 104.56 418.21 99.68C420.9 96.71 422.18 93 421.81 89.24C420.71 78.15 410.15 76.48 399.93 74.87L397.35 74.46C390.73 73.43 383.22 72.27 382.86 69.03C382.72 67.77 383.5 66.64 384.18 65.93C386.24 63.76 390.97 61.58 398.05 61.98V61.99Z" fill="white"/>
<path d="M329.65 107.24H367.02L348.98 58.2L348.86 57.9C347.23 54.27 343.78 52.01 339.79 52.01C335.8 52.01 332.35 54.27 330.74 57.9L312.58 107.24H323.14L339.79 61.99L352.81 97.32H333.3L329.65 107.24Z" fill="white"/>
<path d="M188.64 52H178.72V107.26H215.97V97.33H188.64V52Z" fill="white"/>
<path d="M233.4 52H223.48V107.26H260.73V97.33H233.4V52Z" fill="white"/>
<path d="M104.48 29.8C104.48 23.87 99.67 19.06 93.74 19.06C87.81 19.06 83 23.87 83 29.8C83 35.73 87.81 40.54 93.74 40.54C99.67 40.54 104.48 35.73 104.48 29.8Z" fill="#F6AC19"/>
<path d="M72.31 39.18C64.62 42.26 58.16 47.75 53.86 54.7C50.57 60.06 48.53 66.27 48.19 72.94H48.17C47.7 81.87 40.33 88.96 31.28 88.96C22.23 88.96 14.34 81.38 14.34 72.02C14.34 71.79 14.37 71.58 14.37 71.35C14.37 62.38 19.46 54.61 26.89 50.73C24.84 49.75 22.8 48.69 20.83 47.53C1.86002 36.33 -3.95998 20.74 2.59002 9.62999C9.16002 -1.49001 25.62 -3.90001 44.59 7.29999C58.31 15.4 69.58 28.41 72.3 39.18H72.31Z" fill="#49BCBD"/>
</g>
<defs>
<clipPath id="clip0_2246_17">
<rect width="475.53" height="107.26" fill="white"/>
</clipPath>
</defs>
</svg>
