<?xml version="1.0" encoding="UTF-8"?>
<svg id="_레이어_1" data-name="레이어 1" xmlns="http://www.w3.org/2000/svg" viewBox="0 0 623.62 226.77">
  <defs>
    <style>
      .cls-1 {
        fill: #49bcbd;
      }

      .cls-1, .cls-2, .cls-3, .cls-4 {
        stroke-width: 0px;
      }

      .cls-2 {
        fill: #f6ac19;
      }

      .cls-3 {
        fill: none;
      }

      .cls-4 {
        fill: #292e6a;
      }
    </style>
  </defs>
  <g>
    <g>
      <g>
        <path class="cls-4" d="M226.56,121.74c5.26,0,9.6,1.2,12.9,3.55l5.77-8.07c-5.02-3.58-11.3-5.4-18.67-5.4-17.59,0-29.41,11.09-29.41,27.6s11.82,27.6,29.41,27.6c7.37,0,13.65-1.82,18.67-5.4l-5.77-8.07c-3.3,2.36-7.64,3.55-12.9,3.55-10.24,0-17-4.67-18.92-12.72h30.61v-9.92h-30.61c1.91-8.04,8.67-12.71,18.92-12.71Z"/>
        <path class="cls-4" d="M530.91,121.74c5.26,0,9.6,1.2,12.9,3.55l5.77-8.07c-5.02-3.58-11.3-5.4-18.67-5.4-17.59,0-29.41,11.09-29.41,27.6s11.82,27.6,29.41,27.6c7.37,0,13.65-1.82,18.67-5.4l-5.77-8.07c-3.3,2.36-7.64,3.55-12.9,3.55-10.24,0-17-4.67-18.92-12.72h30.61v-9.92h-30.61c1.91-8.04,8.67-12.71,18.92-12.71Z"/>
        <path class="cls-4" d="M364.4,121.74c5.26,0,9.6,1.2,12.9,3.55l5.77-8.07c-5.02-3.58-11.3-5.4-18.67-5.4-17.59,0-29.41,11.09-29.41,27.6s11.82,27.6,29.41,27.6c7.37,0,13.65-1.82,18.67-5.4l-5.77-8.07c-3.3,2.36-7.64,3.55-12.9,3.55-10.24,0-17-4.67-18.92-12.72h30.61v-9.92h-30.61c1.91-8.04,8.67-12.71,18.92-12.71Z"/>
        <path class="cls-4" d="M167.57,121.76c11.04.63,15,7.16,15.16,7.44l4.32-2.45,4.35-2.38c-.26-.47-6.52-11.57-23.27-12.52-9.05-.51-16.92,2.05-21.63,7.03-3.01,3.17-4.42,7.09-3.98,11.03,1.2,10.79,13.19,12.65,22.83,14.14l2.56.4c10.07,1.59,13.25,2.56,13.55,5.55.1.98-.26,1.89-1.08,2.8-2.44,2.69-7.89,4.3-14.57,4.3-12.91,0-16.29-6.38-16.37-6.55l-9.08,4.01c.22.51,5.73,12.46,25.45,12.46,9.72,0,17.51-2.68,21.92-7.56,2.69-2.97,3.97-6.68,3.6-10.44-1.1-11.09-11.66-12.76-21.88-14.37l-2.58-.41c-6.62-1.03-14.13-2.19-14.49-5.43-.14-1.26.64-2.39,1.32-3.1,2.06-2.17,6.79-4.35,13.87-3.95Z"/>
        <path class="cls-4" d="M472.1,121.75c11.04.63,15,7.16,15.16,7.44l4.32-2.45,4.35-2.38c-.26-.47-6.52-11.57-23.27-12.52-9.05-.51-16.91,2.05-21.63,7.03-3.01,3.17-4.42,7.09-3.98,11.02,1.2,10.79,13.19,12.65,22.83,14.14l2.56.4c10.07,1.59,13.25,2.56,13.55,5.55.1.97-.26,1.89-1.08,2.8-2.44,2.69-7.89,4.3-14.57,4.3-12.91,0-16.29-6.38-16.37-6.55l-9.08,4.01c.22.51,5.73,12.46,25.45,12.46,9.72,0,17.51-2.68,21.92-7.56,2.69-2.97,3.97-6.68,3.6-10.44-1.1-11.09-11.66-12.76-21.88-14.37l-2.58-.41c-6.62-1.03-14.13-2.19-14.49-5.43-.14-1.26.64-2.39,1.32-3.1,2.06-2.17,6.79-4.35,13.87-3.95Z"/>
        <path class="cls-4" d="M403.7,166.99h37.37l-18.04-49.04-.12-.3c-1.63-3.63-5.08-5.89-9.07-5.89s-7.44,2.26-9.05,5.89l-18.16,49.34h10.56l16.65-45.25,13.02,35.33h-19.51l-3.65,9.92Z"/>
        <polygon class="cls-4" points="262.69 111.76 252.76 111.76 252.76 167.01 290.02 167.01 290.02 157.09 262.69 157.09 262.69 111.76"/>
        <polygon class="cls-4" points="307.45 111.76 297.52 111.76 297.52 167.01 334.78 167.01 334.78 157.09 307.45 157.09 307.45 111.76"/>
      </g>
      <path class="cls-2" d="M178.52,89.56c0-5.93-4.81-10.74-10.74-10.74s-10.74,4.81-10.74,10.74,4.81,10.74,10.74,10.74,10.74-4.81,10.74-10.74Z"/>
    </g>
    <path class="cls-1" d="M146.35,98.94c-7.69,3.08-14.15,8.57-18.45,15.52-3.29,5.36-5.33,11.57-5.67,18.24h-.02c-.47,8.93-7.84,16.02-16.89,16.02s-16.94-7.58-16.94-16.94c0-.23.03-.44.03-.67,0-8.97,5.09-16.74,12.52-20.62-2.05-.98-4.09-2.04-6.06-3.2-18.97-11.21-24.79-26.8-18.24-37.91,6.57-11.12,23.03-13.53,42.01-2.33,13.72,8.1,24.99,21.11,27.71,31.88Z"/>
  </g>
  <rect class="cls-3" width="623.62" height="226.77"/>
</svg>